# xmcd
#
# Track frame offsets:
#	150
#	29450
#	45820
#	78942
#	108432
#	125945
#	155125
#	179520
#	211030
#	242267
#
# Disc length: 3534 seconds
#
# Revision: 7
# Processed by: cddbd v1.5.2PL0 Copyright (c) Steve Scherf et al.
# Submitted via: audiograbber 1.83.01
#
DISCID=7b0dcc0a
DTITLE=DJ Quicksilver - Quicksilver
DYEAR=1997
DGENRE=Techno
TTITLE0=Arabesc
TTITLE1=I Have A Dream (Video Mix)
TTITLE2=Free (Club Mix)
TTITLE3=Synphonica
TTITLE4=Bellissima (Video Mix)
TTITLE5=Bingo Bongo (Flip House Mix)
TTITLE6=Techno Macht Spass
TTITLE7=FFM (Do You Remember)
TTITLE8=Deep In Motion
TTITLE9=African Rain
EXTD=
EXTT0=
EXTT1=
EXTT2=
EXTT3=
EXTT4=
EXTT5=
EXTT6=
EXTT7=
EXTT8=
EXTT9=
PLAYORDER=
